<svg fill="#F3F3F3" xmlns="http://www.w3.org/2000/svg" data-name="Layer 1" viewBox="0 0 128 128" x="0px" y="0px"><title>71 Security &amp;amp; Antivirus 2</title><circle cx="64" cy="71" r="3"></circle><path d="M29.92,62.84l-6.09.82,3.88-5.18a.52.52,0,0,0,.09-.42.52.52,0,0,0-.25-.35l-2.87-1.65a.5.5,0,0,0-.41,0,.51.51,0,0,0-.31.28l-2.5,5.82-2.54-5.78a.51.51,0,0,0-.31-.28.5.5,0,0,0-.41,0l-2.92,1.7a.52.52,0,0,0-.15.76l3.83,5-5.9-.77a.49.49,0,0,0-.4.12.52.52,0,0,0-.17.39v3.3a.51.51,0,0,0,.17.39.5.5,0,0,0,.4.13L19,66.39l-3.87,5a.53.53,0,0,0-.1.41.52.52,0,0,0,.23.35L18,73.92a.51.51,0,0,0,.27.08l.14,0a.51.51,0,0,0,.32-.28l2.68-5.89,2.46,5.83a.51.51,0,0,0,.72.24l3-1.75a.52.52,0,0,0,.25-.35.53.53,0,0,0-.1-.42l-3.9-4.94,6.07.73a.48.48,0,0,0,.4-.13.52.52,0,0,0,.17-.39v-3.3a.51.51,0,0,0-.58-.51Z"></path><path d="M114.92,62.84l-6.09.82,3.88-5.18a.52.52,0,0,0,.09-.42.52.52,0,0,0-.25-.35l-2.87-1.65a.5.5,0,0,0-.41,0,.51.51,0,0,0-.31.28l-2.5,5.82-2.54-5.78a.51.51,0,0,0-.31-.28.5.5,0,0,0-.41,0l-2.92,1.7a.52.52,0,0,0-.15.76l3.83,5-5.9-.77a.49.49,0,0,0-.4.12.52.52,0,0,0-.17.39v3.3a.51.51,0,0,0,.17.39.5.5,0,0,0,.4.13l5.94-.77-3.87,5a.53.53,0,0,0-.1.41.52.52,0,0,0,.23.35L103,73.92a.51.51,0,0,0,.27.08l.14,0a.51.51,0,0,0,.32-.28l2.68-5.89,2.46,5.83a.51.51,0,0,0,.72.24l3-1.75a.52.52,0,0,0,.25-.35.53.53,0,0,0-.1-.42l-3.9-4.94,6.07.73a.48.48,0,0,0,.4-.13.52.52,0,0,0,.17-.39v-3.3a.51.51,0,0,0-.58-.51Z"></path><path d="M85,46H78V34.85C78,27.75,71.92,22,64.42,22h-.84C56.08,22,50,27.75,50,34.85V46H43a4,4,0,0,0-4,4V84a4,4,0,0,0,4,4H85a4,4,0,0,0,4-4V50A4,4,0,0,0,85,46ZM66,77.71V84H62V77.71a7,7,0,1,1,4,0ZM74,46H54V34.85C54,30,58.3,26,63.58,26h.84C69.71,26,74,30,74,34.85Z"></path><path d="M128,21a6,6,0,0,0-6-6H6a6,6,0,0,0-6,6V99a6,6,0,0,0,6,6H55v8H47a2,2,0,0,0,0,4H81a2,2,0,0,0,0-4H71v-8h51a6,6,0,0,0,6-6ZM67,113H59v-8h8Zm57-27H92.74A8,8,0,0,1,85,92H43a8,8,0,0,1-7.74-6H4V21a2,2,0,0,1,2-2H122a2,2,0,0,1,2,2Z"></path></svg>